<?xml version="1.0" standalone="no"?>
<!DOCTYPE svg PUBLIC "-//W3C//DTD SVG 20010904//EN"
 "http://www.w3.org/TR/2001/REC-SVG-20010904/DTD/svg10.dtd">
<svg version="1.0" xmlns="http://www.w3.org/2000/svg"
 width="2190.000000pt" height="588.000000pt" viewBox="0 0 2190.000000 588.000000"
 preserveAspectRatio="xMidYMid meet">

<g transform="translate(0.000000,588.000000) scale(0.100000,-0.100000)"
fill="#000000" stroke="none">
<path d="M490 4922 l0 -228 902 -993 902 -993 28 34 c30 36 148 263 148 285 0
7 -430 488 -955 1068 -918 1014 -957 1055 -990 1055 l-35 0 0 -228z"/>
<path d="M816 5043 c53 -60 103 -115 110 -123 12 -12 14 4 14 108 l0 122 -111
0 -111 0 98 -107z"/>
<path d="M1170 4899 l0 -251 96 -106 c53 -59 103 -114 110 -122 12 -12 14 44
14 358 l0 372 -110 0 -110 0 0 -251z"/>
<path d="M1620 4649 l0 -502 87 -96 c48 -53 97 -107 110 -121 l23 -25 0 623 0
622 -110 0 -110 0 0 -501z"/>
<path d="M2070 4399 l0 -752 87 -96 c48 -53 97 -107 110 -121 l23 -25 0 873 0
872 -110 0 -110 0 0 -751z"/>
<path d="M4195 4985 c-56 -55 -16 -145 63 -145 51 0 82 32 82 84 0 77 -91 116
-145 61z"/>
<path d="M7715 4985 c-56 -55 -16 -145 63 -145 51 0 82 32 82 84 0 77 -91 116
-145 61z"/>
<path d="M10305 4985 c-56 -55 -16 -145 63 -145 51 0 82 32 82 84 0 77 -91
116 -145 61z"/>
<path d="M12645 4985 c-56 -55 -16 -145 63 -145 51 0 82 32 82 84 0 77 -91
116 -145 61z"/>
<path d="M15735 4985 c-56 -55 -16 -145 63 -145 51 0 82 32 82 84 0 77 -91
116 -145 61z"/>
<path d="M20925 4985 c-56 -55 -16 -145 63 -145 51 0 82 32 82 84 0 77 -91
116 -145 61z"/>
<path d="M16565 4976 c-66 -21 -101 -43 -144 -92 -128 -146 -129 -452 0 -597
58 -66 132 -100 233 -105 108 -5 174 19 245 90 l52 52 -57 57 -58 58 -34 -36
c-95 -97 -222 -81 -280 36 -23 48 -27 68 -27 146 0 78 4 98 27 146 56 114 178
133 275 42 l32 -31 58 52 c39 37 55 57 50 68 -11 30 -107 97 -159 113 -62 18
-158 18 -213 1z"/>
<path d="M3412 4968 c3 -7 63 -185 134 -395 l129 -383 76 0 77 0 131 390 c72
214 131 392 131 395 0 3 -38 5 -84 5 l-84 0 -47 -147 c-81 -257 -124 -388
-125 -383 0 3 -38 122 -83 265 l-83 260 -88 3 c-69 2 -87 0 -84 -10z"/>
<path d="M8280 4860 c0 -116 -1 -120 -19 -110 -30 16 -112 11 -156 -9 -89 -40
-135 -133 -135 -271 0 -138 46 -231 135 -271 46 -21 127 -24 175 -7 26 9 35 9
38 0 2 -7 11 -12 21 -12 14 0 110 28 119 35 1 1 -5 21 -13 45 -12 35 -15 105
-15 381 l0 339 -75 0 -75 0 0 -120z m-21 -276 c18 -22 21 -41 21 -114 0 -105
-19 -140 -74 -140 -44 0 -67 28 -77 90 -10 63 3 144 26 170 27 30 78 27 104
-6z"/>
<path d="M8670 4975 c0 -3 32 -46 72 -95 l72 -90 48 0 c29 0 48 4 48 11 0 7
-20 50 -46 95 l-45 84 -75 0 c-40 0 -74 -2 -74 -5z"/>
<path d="M11480 4586 l0 -396 80 0 80 0 0 154 0 154 133 4 c119 3 136 6 175
28 27 15 54 42 70 70 24 40 27 56 27 136 0 83 -2 94 -30 139 -21 35 -45 56
-80 74 -47 25 -57 26 -252 29 l-203 3 0 -395z m385 209 c42 -41 27 -116 -28
-135 -16 -5 -68 -10 -113 -10 l-84 0 0 85 0 85 100 0 c94 0 103 -2 125 -25z"/>
<path d="M19310 4631 c0 -346 0 -348 23 -382 24 -36 70 -57 125 -58 l32 -1 0
64 c0 48 -4 65 -15 70 -13 5 -15 51 -15 331 l0 325 -75 0 -75 0 0 -349z"/>
<path d="M19600 4631 c0 -346 0 -348 23 -382 24 -36 70 -57 125 -58 l32 -1 0
64 c0 48 -4 65 -15 70 -13 5 -15 51 -15 331 l0 325 -75 0 -75 0 0 -349z"/>
<path d="M4604 4744 c-54 -19 -111 -75 -138 -133 -17 -37 -21 -65 -21 -141 0
-111 19 -164 80 -223 97 -94 273 -88 370 13 l29 30 -54 55 -53 54 -39 -34
c-28 -26 -47 -35 -74 -35 -72 0 -104 42 -104 140 0 98 32 140 104 140 27 0 46
-9 74 -35 l39 -34 53 54 54 55 -25 26 c-13 14 -44 37 -68 52 -54 32 -164 40
-227 16z"/>
<path d="M5144 4736 c-123 -57 -180 -239 -123 -392 64 -171 274 -218 420 -94
l34 29 -47 47 -46 47 -34 -20 c-48 -30 -83 -35 -120 -20 -39 17 -54 33 -63 70
l-7 27 161 0 161 0 0 52 c0 73 -27 159 -63 203 -62 76 -175 97 -273 51z m139
-128 c28 -15 46 -38 47 -60 0 -16 -11 -18 -85 -18 -47 0 -85 2 -85 5 0 21 30
60 55 71 38 17 41 17 68 2z"/>
<path d="M5738 4746 c-16 -8 -28 -11 -28 -5 0 5 -29 9 -65 9 l-65 0 0 -405 0
-405 75 0 75 0 0 130 0 130 26 -10 c69 -27 163 -3 220 54 51 50 74 120 74 220
0 137 -49 238 -134 277 -49 22 -140 25 -178 5z m127 -166 c41 -45 37 -198 -5
-232 -29 -23 -72 -23 -101 1 -22 18 -24 26 -24 114 0 79 3 98 19 116 25 28 86
29 111 1z"/>
<path d="M6323 4745 c-19 -8 -35 -10 -38 -4 -4 5 -33 9 -66 9 l-59 0 0 -280 0
-280 75 0 75 0 1 178 c1 97 4 188 8 202 10 36 56 56 102 43 l37 -10 26 54 c14
29 26 57 26 62 0 14 -78 41 -118 41 -20 -1 -52 -7 -69 -15z"/>
<path d="M6724 4736 c-123 -57 -180 -239 -123 -392 64 -171 274 -218 420 -94
l34 29 -47 47 -46 47 -34 -20 c-48 -30 -83 -35 -120 -20 -39 17 -54 33 -63 70
l-7 27 161 0 161 0 0 52 c0 73 -27 159 -63 203 -62 76 -175 97 -273 51z m139
-128 c28 -15 46 -38 47 -60 0 -16 -11 -18 -85 -18 -47 0 -85 2 -85 5 0 21 30
60 55 71 38 17 41 17 68 2z"/>
<path d="M7255 4745 c-80 -28 -129 -118 -106 -194 18 -62 58 -92 172 -131 56
-19 107 -42 113 -52 17 -28 -10 -48 -66 -48 -39 0 -54 5 -74 25 l-24 24 -65
-17 c-36 -9 -65 -21 -65 -27 1 -29 50 -92 90 -115 39 -22 57 -25 136 -25 83 0
94 2 139 30 58 37 85 83 85 149 0 90 -52 139 -183 172 -38 9 -78 25 -90 35
-20 16 -21 19 -6 34 24 24 86 22 112 -4 l21 -20 58 31 c32 17 58 36 58 42 0
19 -62 74 -102 90 -46 20 -149 20 -203 1z"/>
<path d="M8694 4736 c-123 -57 -180 -239 -123 -392 64 -171 274 -218 420 -94
l34 29 -47 47 -46 47 -34 -20 c-48 -30 -83 -35 -120 -20 -39 17 -54 33 -63 70
l-7 27 161 0 161 0 0 52 c0 73 -27 159 -63 203 -62 76 -175 97 -273 51z m139
-128 c28 -15 46 -38 47 -60 0 -16 -11 -18 -85 -18 -47 0 -85 2 -85 5 0 21 30
60 55 71 38 17 41 17 68 2z"/>
<path d="M9303 4745 c-18 -8 -33 -10 -33 -5 0 6 -29 10 -65 10 l-65 0 0 -280
0 -280 74 0 75 0 3 186 3 186 29 25 c34 29 77 26 111 -7 18 -19 20 -37 24
-205 l3 -185 74 0 74 0 0 188 c0 209 -10 266 -56 316 -57 60 -175 84 -251 51z"/>
<path d="M9874 4744 c-54 -19 -111 -75 -138 -133 -17 -37 -21 -65 -21 -141 0
-111 19 -164 80 -223 97 -94 273 -88 370 13 l29 30 -54 55 -53 54 -39 -34
c-28 -26 -47 -35 -74 -35 -72 0 -104 42 -104 140 0 98 32 140 104 140 27 0 46
-9 74 -35 l39 -34 53 54 54 55 -25 26 c-13 14 -44 37 -68 52 -54 32 -164 40
-227 16z"/>
<path d="M10720 4751 c-52 -16 -90 -42 -115 -78 -14 -21 -25 -43 -25 -49 0 -6
28 -22 62 -36 l62 -25 27 28 c21 23 36 29 67 29 45 0 62 -15 65 -57 l2 -28
-91 -6 c-74 -4 -100 -11 -136 -32 -126 -74 -95 -266 50 -307 52 -14 112 -13
161 4 35 13 42 13 48 1 7 -12 18 -12 71 2 61 15 64 17 57 42 -4 14 -10 109
-14 211 -5 169 -8 188 -29 222 -43 70 -168 107 -262 79z m150 -372 c0 -36 -3
-41 -35 -55 -74 -31 -145 -4 -131 50 8 33 35 45 109 45 l57 1 0 -41z"/>
<path d="M12333 4745 c-19 -8 -35 -10 -38 -4 -4 5 -33 9 -66 9 l-59 0 0 -280
0 -280 75 0 75 0 1 178 c1 97 4 188 8 202 10 36 56 56 102 43 l37 -10 26 54
c14 29 26 57 26 62 0 14 -78 41 -118 41 -20 -1 -52 -7 -69 -15z"/>
<path d="M13088 4746 c-16 -9 -30 -11 -33 -5 -4 5 -35 9 -71 9 l-64 0 0 -280
0 -280 80 0 80 0 0 185 0 186 26 26 c20 20 31 24 57 19 54 -11 57 -22 57 -228
l0 -188 80 0 80 0 0 169 c0 98 5 181 11 200 18 51 67 61 112 23 15 -13 17 -36
17 -204 l0 -188 80 0 80 0 0 190 c0 218 -13 274 -75 329 -64 56 -179 68 -252
27 l-42 -24 -47 24 c-55 28 -133 32 -176 10z"/>
<path d="M13934 4736 c-123 -57 -180 -239 -123 -392 64 -171 274 -218 420 -94
l34 29 -47 47 -46 47 -34 -20 c-48 -30 -83 -35 -120 -20 -39 17 -54 33 -63 70
l-7 27 161 0 161 0 0 52 c0 73 -27 159 -63 203 -62 76 -175 97 -273 51z m139
-128 c28 -15 46 -38 47 -60 0 -16 -11 -18 -85 -18 -47 0 -85 2 -85 5 0 21 30
60 55 71 38 17 41 17 68 2z"/>
<path d="M14533 4745 c-19 -8 -35 -10 -38 -4 -4 5 -33 9 -66 9 l-59 0 0 -280
0 -280 75 0 75 0 1 178 c1 97 4 188 8 202 10 36 56 56 102 43 l37 -10 26 54
c14 29 26 57 26 62 0 14 -78 41 -118 41 -20 -1 -52 -7 -69 -15z"/>
<path d="M14960 4751 c-52 -16 -90 -42 -115 -78 -14 -21 -25 -43 -25 -49 0 -6
28 -22 62 -36 l62 -25 27 28 c21 23 36 29 67 29 45 0 62 -15 65 -57 l2 -28
-91 -6 c-74 -4 -100 -11 -136 -32 -126 -74 -95 -266 50 -307 52 -14 112 -13
161 4 35 13 42 13 48 1 7 -12 18 -12 71 2 61 15 64 17 57 42 -4 14 -10 109
-14 211 -5 169 -8 188 -29 222 -43 70 -168 107 -262 79z m150 -372 c0 -36 -3
-41 -35 -55 -74 -31 -145 -4 -131 50 8 33 35 45 109 45 l57 1 0 -41z"/>
<path d="M17176 4745 c-62 -22 -89 -46 -120 -109 -54 -106 -46 -274 17 -367
71 -105 284 -120 375 -26 55 57 76 119 76 227 0 109 -23 175 -77 228 -60 58
-182 79 -271 47z m159 -159 c28 -28 40 -95 30 -162 -13 -92 -95 -126 -156 -65
-27 28 -29 34 -29 111 0 77 2 83 29 111 38 38 91 40 126 5z"/>
<path d="M17793 4745 c-18 -8 -33 -10 -33 -5 0 6 -29 10 -65 10 l-65 0 0 -280
0 -280 74 0 75 0 3 186 3 186 29 25 c34 29 77 26 111 -7 18 -19 20 -37 24
-205 l3 -185 74 0 74 0 0 188 c0 209 -10 266 -56 316 -57 60 -175 84 -251 51z"/>
<path d="M18315 4745 c-80 -28 -129 -118 -106 -194 18 -62 58 -92 172 -131 56
-19 107 -42 113 -52 17 -28 -10 -48 -66 -48 -39 0 -54 5 -74 25 l-24 24 -65
-17 c-36 -9 -65 -21 -65 -27 1 -29 50 -92 90 -115 39 -22 57 -25 136 -25 83 0
94 2 139 30 58 37 85 83 85 149 0 90 -52 139 -183 172 -38 9 -78 25 -90 35
-20 16 -21 19 -6 34 24 24 86 22 112 -4 l21 -20 58 31 c32 17 58 36 58 42 0
19 -62 74 -102 90 -46 20 -149 20 -203 1z"/>
<path d="M18874 4736 c-123 -57 -180 -239 -123 -392 64 -171 274 -218 420 -94
l34 29 -47 47 -46 47 -34 -20 c-48 -30 -83 -35 -120 -20 -39 17 -54 33 -63 70
l-7 27 161 0 161 0 0 52 c0 73 -27 159 -63 203 -62 76 -175 97 -273 51z m139
-128 c28 -15 46 -38 47 -60 0 -16 -11 -18 -85 -18 -47 0 -85 2 -85 5 0 21 30
60 55 71 38 17 41 17 68 2z"/>
<path d="M20004 4736 c-123 -57 -180 -239 -123 -392 64 -171 274 -218 420 -94
l34 29 -47 47 -46 47 -34 -20 c-48 -30 -83 -35 -120 -20 -39 17 -54 33 -63 70
l-7 27 161 0 161 0 0 52 c0 73 -27 159 -63 203 -62 76 -175 97 -273 51z m139
-128 c28 -15 46 -38 47 -60 0 -16 -11 -18 -85 -18 -47 0 -85 2 -85 5 0 21 30
60 55 71 38 17 41 17 68 2z"/>
<path d="M20613 4745 c-19 -8 -35 -10 -38 -4 -4 5 -33 9 -66 9 l-59 0 0 -280
0 -280 75 0 75 0 1 178 c1 97 4 188 8 202 10 36 56 56 102 43 l37 -10 26 54
c14 29 26 57 26 62 0 14 -78 41 -118 41 -20 -1 -52 -7 -69 -15z"/>
<path d="M21330 4751 c-52 -16 -90 -42 -115 -78 -14 -21 -25 -43 -25 -49 0 -6
28 -22 62 -36 l62 -25 27 28 c21 23 36 29 67 29 45 0 62 -15 65 -57 l2 -28
-91 -6 c-74 -4 -100 -11 -136 -32 -126 -74 -95 -266 50 -307 52 -14 112 -13
161 4 35 13 42 13 48 1 7 -12 18 -12 71 2 61 15 64 17 57 42 -4 14 -10 109
-14 211 -5 169 -8 188 -29 222 -43 70 -168 107 -262 79z m150 -372 c0 -36 -3
-41 -35 -55 -74 -31 -145 -4 -131 50 8 33 35 45 109 45 l57 1 0 -41z"/>
<path d="M4180 4470 l0 -280 75 0 75 0 0 280 0 280 -75 0 -75 0 0 -280z"/>
<path d="M7700 4470 l0 -280 75 0 75 0 0 280 0 280 -75 0 -75 0 0 -280z"/>
<path d="M10290 4470 l0 -280 75 0 75 0 0 280 0 280 -75 0 -75 0 0 -280z"/>
<path d="M12630 4470 l0 -280 75 0 75 0 0 280 0 280 -75 0 -75 0 0 -280z"/>
<path d="M15720 4470 l0 -280 75 0 75 0 0 280 0 280 -75 0 -75 0 0 -280z"/>
<path d="M20910 4470 l0 -280 75 0 75 0 0 280 0 280 -75 0 -75 0 0 -280z"/>
<path d="M720 3479 l0 -780 51 -54 c49 -52 149 -135 162 -135 4 0 7 341 7 758
l0 759 -106 116 c-58 65 -108 117 -110 117 -2 0 -4 -351 -4 -781z"/>
<path d="M1173 3081 l2 -694 60 -17 c33 -9 81 -20 108 -24 l47 -7 0 597 0 597
-77 85 c-43 47 -92 101 -110 121 l-32 36 2 -694z"/>
<path d="M4069 3661 c-22 -18 -24 -28 -27 -125 l-4 -106 71 0 71 0 0 104 c0
101 -1 105 -26 125 -33 26 -55 26 -85 2z"/>
<path d="M8225 3635 c-56 -55 -16 -145 63 -145 51 0 82 32 82 84 0 77 -91 116
-145 61z"/>
<path d="M10505 3635 c-56 -55 -16 -145 63 -145 51 0 82 32 82 84 0 77 -91
116 -145 61z"/>
<path d="M13955 3635 c-56 -55 -16 -145 63 -145 51 0 82 32 82 84 0 77 -91
116 -145 61z"/>
<path d="M18375 3635 c-56 -55 -16 -145 63 -145 51 0 82 32 82 84 0 77 -91
116 -145 61z"/>
<path d="M3750 3510 c0 -116 -1 -120 -19 -110 -30 16 -112 11 -156 -9 -89 -40
-135 -133 -135 -271 0 -138 46 -231 135 -271 46 -21 127 -24 175 -7 26 9 35 9
38 0 2 -7 11 -12 21 -12 14 0 110 28 119 35 1 1 -5 21 -13 45 -12 35 -15 105
-15 381 l0 339 -75 0 -75 0 0 -120z m-21 -276 c18 -22 21 -41 21 -114 0 -105
-19 -140 -74 -140 -44 0 -67 28 -77 90 -10 63 3 144 26 170 27 30 78 27 104
-6z"/>
<path d="M4330 3235 l0 -395 270 0 270 0 0 80 0 80 -190 0 -190 0 0 85 0 85
165 0 165 0 0 75 0 75 -165 0 -165 0 0 75 0 75 190 0 190 0 0 80 0 80 -270 0
-270 0 0 -395z"/>
<path d="M9740 3235 l0 -395 80 0 80 0 0 165 0 165 140 0 140 0 0 -165 0 -165
80 0 80 0 0 395 0 395 -80 0 -80 0 0 -155 0 -155 -140 0 -140 0 0 155 0 155
-80 0 -80 0 0 -395z"/>
<path d="M12750 3510 c0 -116 -1 -120 -19 -110 -30 16 -112 11 -156 -9 -89
-40 -135 -133 -135 -271 0 -138 46 -231 135 -271 46 -21 127 -24 175 -7 26 9
35 9 38 0 2 -7 11 -12 21 -12 14 0 110 28 119 35 1 1 -5 21 -13 45 -12 35 -15
105 -15 381 l0 339 -75 0 -75 0 0 -120z m-21 -276 c18 -22 21 -41 21 -114 0
-105 -19 -140 -74 -140 -44 0 -67 28 -77 90 -10 63 3 144 26 170 27 30 78 27
104 -6z"/>
<path d="M14580 3235 l0 -395 80 0 80 0 0 395 0 395 -80 0 -80 0 0 -395z"/>
<path d="M18806 3544 c-25 -47 -46 -90 -46 -95 0 -5 22 -9 49 -9 53 0 45 -7
184 167 l18 23 -79 0 -80 0 -46 -86z"/>
<path d="M5134 3394 c-54 -19 -111 -75 -138 -133 -17 -37 -21 -65 -21 -141 0
-111 19 -164 80 -223 97 -94 273 -88 370 13 l29 30 -54 55 -53 54 -39 -34
c-28 -26 -47 -35 -74 -35 -72 0 -104 42 -104 140 0 98 32 140 104 140 27 0 46
-9 74 -35 l39 -34 53 54 54 55 -25 26 c-13 14 -44 37 -68 52 -54 32 -164 40
-227 16z"/>
<path d="M5676 3395 c-62 -22 -89 -46 -120 -109 -54 -106 -46 -274 17 -367 71
-105 284 -120 375 -26 55 57 76 119 76 227 0 109 -23 175 -77 228 -60 58 -182
79 -271 47z m159 -159 c28 -28 40 -95 30 -162 -13 -92 -95 -126 -156 -65 -27
28 -29 34 -29 111 0 77 2 83 29 111 38 38 91 40 126 5z"/>
<path d="M6293 3395 c-18 -8 -33 -10 -33 -5 0 6 -29 10 -65 10 l-65 0 0 -280
0 -280 74 0 75 0 3 186 3 186 29 25 c34 29 77 26 111 -7 18 -19 20 -37 24
-205 l3 -185 74 0 74 0 0 188 c0 209 -10 266 -56 316 -57 60 -175 84 -251 51z"/>
<path d="M6856 3395 c-62 -22 -89 -46 -120 -109 -54 -106 -46 -274 17 -367 71
-105 284 -120 375 -26 55 57 76 119 76 227 0 109 -23 175 -77 228 -60 58 -182
79 -271 47z m159 -159 c28 -28 40 -95 30 -162 -13 -92 -95 -126 -156 -65 -27
28 -29 34 -29 111 0 77 2 83 29 111 38 38 91 40 126 5z"/>
<path d="M7478 3396 c-16 -9 -30 -11 -33 -5 -4 5 -35 9 -71 9 l-64 0 0 -280 0
-280 80 0 80 0 0 185 0 186 26 26 c20 20 31 24 57 19 54 -11 57 -22 57 -228
l0 -188 80 0 80 0 0 169 c0 98 5 181 11 200 18 51 67 61 112 23 15 -13 17 -36
17 -204 l0 -188 80 0 80 0 0 190 c0 218 -13 274 -75 329 -64 56 -179 68 -252
27 l-42 -24 -47 24 c-55 28 -133 32 -176 10z"/>
<path d="M8630 3401 c-52 -16 -90 -42 -115 -78 -14 -21 -25 -43 -25 -49 0 -6
28 -22 62 -36 l62 -25 27 28 c21 23 36 29 67 29 45 0 62 -15 65 -57 l2 -28
-91 -6 c-74 -4 -100 -11 -136 -32 -126 -74 -95 -266 50 -307 52 -14 112 -13
161 4 35 13 42 13 48 1 7 -12 18 -12 71 2 61 15 64 17 57 42 -4 14 -10 109
-14 211 -5 169 -8 188 -29 222 -43 70 -168 107 -262 79z m150 -372 c0 -36 -3
-41 -35 -55 -74 -31 -145 -4 -131 50 8 33 35 45 109 45 l57 1 0 -41z"/>
<path d="M10865 3395 c-80 -28 -129 -118 -106 -194 18 -62 58 -92 172 -131 56
-19 107 -42 113 -52 17 -28 -10 -48 -66 -48 -39 0 -54 5 -74 25 l-24 24 -65
-17 c-36 -9 -65 -21 -65 -27 1 -29 50 -92 90 -115 39 -22 57 -25 136 -25 83 0
94 2 139 30 58 37 85 83 85 149 0 90 -52 139 -183 172 -38 9 -78 25 -90 35
-20 16 -21 19 -6 34 24 24 86 22 112 -4 l21 -20 58 31 c32 17 58 36 58 42 0
19 -62 74 -102 90 -46 20 -149 20 -203 1z"/>
<path d="M11424 3386 c-123 -57 -180 -239 -123 -392 64 -171 274 -218 420 -94
l34 29 -47 47 -46 47 -34 -20 c-48 -30 -83 -35 -120 -20 -39 17 -54 33 -63 70
l-7 27 161 0 161 0 0 52 c0 73 -27 159 -63 203 -62 76 -175 97 -273 51z m139
-128 c28 -15 46 -38 47 -60 0 -16 -11 -18 -85 -18 -47 0 -85 2 -85 5 0 21 30
60 55 71 38 17 41 17 68 2z"/>
<path d="M12033 3395 c-18 -8 -33 -10 -33 -5 0 6 -29 10 -65 10 l-65 0 0 -280
0 -280 74 0 75 0 3 186 3 186 29 25 c34 29 77 26 111 -7 18 -19 20 -37 24
-205 l3 -185 74 0 74 0 0 188 c0 209 -10 266 -56 316 -57 60 -175 84 -251 51z"/>
<path d="M13180 3401 c-52 -16 -90 -42 -115 -78 -14 -21 -25 -43 -25 -49 0 -6
28 -22 62 -36 l62 -25 27 28 c21 23 36 29 67 29 45 0 62 -15 65 -57 l2 -28
-91 -6 c-74 -4 -100 -11 -136 -32 -126 -74 -95 -266 50 -307 52 -14 112 -13
161 4 35 13 42 13 48 1 7 -12 18 -12 71 2 61 15 64 17 57 42 -4 14 -10 109
-14 211 -5 169 -8 188 -29 222 -43 70 -168 107 -262 79z m150 -372 c0 -36 -3
-41 -35 -55 -74 -31 -145 -4 -131 50 8 33 35 45 109 45 l57 1 0 -41z"/>
<path d="M15053 3395 c-18 -8 -33 -10 -33 -5 0 6 -29 10 -65 10 l-65 0 0 -280
0 -280 74 0 75 0 3 186 3 186 29 25 c34 29 77 26 111 -7 18 -19 20 -37 24
-205 l3 -185 74 0 74 0 0 188 c0 209 -10 266 -56 316 -57 60 -175 84 -251 51z"/>
<path d="M15653 3395 c-18 -8 -33 -10 -33 -5 0 6 -29 10 -65 10 l-65 0 0 -280
0 -280 74 0 75 0 3 186 3 186 29 25 c34 29 77 26 111 -7 18 -19 20 -37 24
-205 l3 -185 74 0 74 0 0 188 c0 209 -10 266 -56 316 -57 60 -175 84 -251 51z"/>
<path d="M16216 3395 c-62 -22 -89 -46 -120 -109 -54 -106 -46 -274 17 -367
71 -105 284 -120 375 -26 55 57 76 119 76 227 0 109 -23 175 -77 228 -60 58
-182 79 -271 47z m159 -159 c28 -28 40 -95 30 -162 -13 -92 -95 -126 -156 -65
-27 28 -29 34 -29 111 0 77 2 83 29 111 38 38 91 40 126 5z"/>
<path d="M17390 3401 c-52 -16 -90 -42 -115 -78 -14 -21 -25 -43 -25 -49 0 -6
28 -22 62 -36 l62 -25 27 28 c21 23 36 29 67 29 45 0 62 -15 65 -57 l2 -28
-91 -6 c-74 -4 -100 -11 -136 -32 -126 -74 -95 -266 50 -307 52 -14 112 -13
161 4 35 13 42 13 48 1 7 -12 18 -12 71 2 61 15 64 17 57 42 -4 14 -10 109
-14 211 -5 169 -8 188 -29 222 -43 70 -168 107 -262 79z m150 -372 c0 -36 -3
-41 -35 -55 -74 -31 -145 -4 -131 50 8 33 35 45 109 45 l57 1 0 -41z"/>
<path d="M17944 3394 c-54 -19 -111 -75 -138 -133 -17 -37 -21 -65 -21 -141 0
-111 19 -164 80 -223 97 -94 273 -88 370 13 l29 30 -54 55 -53 54 -39 -34
c-28 -26 -47 -35 -74 -35 -72 0 -104 42 -104 140 0 98 32 140 104 140 27 0 46
-9 74 -35 l39 -34 53 54 54 55 -25 26 c-13 14 -44 37 -68 52 -54 32 -164 40
-227 16z"/>
<path d="M18786 3395 c-62 -22 -89 -46 -120 -109 -54 -106 -46 -274 17 -367
71 -105 284 -120 375 -26 55 57 76 119 76 227 0 109 -23 175 -77 228 -60 58
-182 79 -271 47z m159 -159 c28 -28 40 -95 30 -162 -13 -92 -95 -126 -156 -65
-27 28 -29 34 -29 111 0 77 2 83 29 111 38 38 91 40 126 5z"/>
<path d="M8210 3120 l0 -280 75 0 75 0 0 280 0 280 -75 0 -75 0 0 -280z"/>
<path d="M10490 3120 l0 -280 75 0 75 0 0 280 0 280 -75 0 -75 0 0 -280z"/>
<path d="M13940 3120 l0 -280 75 0 75 0 0 280 0 280 -75 0 -75 0 0 -280z"/>
<path d="M16620 3393 c0 -4 46 -129 103 -278 l103 -270 64 -3 65 -3 94 248
c52 136 101 263 108 281 l14 33 -87 -3 -87 -3 -49 -145 c-26 -80 -51 -152 -54
-160 -4 -9 -28 52 -58 145 l-52 160 -82 3 c-45 2 -82 -1 -82 -5z"/>
<path d="M18360 3120 l0 -280 75 0 75 0 0 280 0 280 -75 0 -75 0 0 -280z"/>
<path d="M1620 2804 l0 -465 48 7 c26 4 74 14 107 23 l60 16 3 327 2 326 -106
116 c-58 64 -107 116 -110 116 -2 0 -4 -210 -4 -466z"/>
<path d="M9099 2991 l-29 -29 0 -156 0 -156 39 0 c39 0 40 1 100 97 67 107 76
152 46 218 -30 61 -107 74 -156 26z"/>
<path d="M2070 2647 c0 -75 4 -137 8 -137 4 0 39 25 76 56 l67 56 -57 61 c-32
34 -66 71 -76 82 -17 19 -18 16 -18 -118z"/>
<path d="M11408 2489 c-15 -8 -18 -25 -18 -104 l0 -95 40 0 40 0 0 95 c0 83
-2 96 -19 105 -23 12 -22 12 -43 -1z"/>
<path d="M4135 2450 c-41 -46 29 -116 75 -75 24 22 26 58 4 79 -21 22 -57 20
-79 -4z"/>
<path d="M6245 2450 c-41 -46 29 -116 75 -75 24 22 26 58 4 79 -21 22 -57 20
-79 -4z"/>
<path d="M7441 2453 c-60 -21 -124 -90 -152 -161 -34 -86 -39 -257 -10 -351
40 -130 117 -199 235 -208 79 -7 125 8 170 55 l36 36 0 -42 c0 -41 1 -42 35
-42 l35 0 0 190 0 190 -125 0 -125 0 0 -35 0 -35 86 0 87 0 -7 -51 c-19 -143
-99 -211 -214 -180 -83 23 -125 82 -144 206 -14 92 1 207 35 269 58 106 203
126 293 41 l37 -35 26 22 c14 13 28 24 30 26 14 8 -89 93 -128 107 -56 19
-143 18 -200 -2z"/>
<path d="M14925 2450 c-41 -46 29 -116 75 -75 24 22 26 58 4 79 -21 22 -57 20
-79 -4z"/>
<path d="M3480 2100 l0 -362 168 4 c181 4 220 14 275 66 56 53 62 79 62 292 0
209 -5 235 -56 289 -50 53 -100 66 -281 69 l-168 4 0 -362z m345 258 c17 -9
38 -25 48 -35 27 -31 40 -126 35 -264 -7 -201 -34 -229 -229 -237 l-119 -5 0
283 0 282 118 -4 c80 -3 126 -9 147 -20z"/>
<path d="M10333 2263 c4 -108 7 -254 7 -324 0 -126 1 -129 28 -159 17 -20 40
-33 65 -37 36 -5 37 -5 37 25 0 22 -7 35 -22 43 -13 7 -26 17 -30 23 -4 6 -8
149 -8 319 l0 307 -42 0 -41 0 6 -197z"/>
<path d="M11170 2330 l0 -129 -36 24 c-73 50 -199 23 -248 -52 -60 -91 -61
-277 -3 -365 50 -76 172 -100 261 -53 l46 24 0 -25 c0 -24 3 -25 33 -19 45 10
47 12 36 48 -5 17 -9 177 -9 354 l0 323 -40 0 -40 0 0 -130z m-38 -189 l33
-29 0 -121 c0 -117 -1 -121 -27 -147 -20 -21 -39 -28 -80 -32 -47 -4 -58 -1
-85 22 -70 59 -72 247 -3 309 24 22 40 27 80 27 41 0 56 -5 82 -29z"/>
<path d="M11630 2100 l0 -360 40 0 40 0 0 360 0 360 -40 0 -40 0 0 -360z"/>
<path d="M6612 2370 l-43 -80 34 0 c25 0 38 7 53 28 11 15 37 51 58 80 l38 52
-49 0 -48 0 -43 -80z"/>
<path d="M15302 2370 l-43 -80 34 0 c25 0 38 7 53 28 11 15 37 51 58 80 l38
52 -49 0 -48 0 -43 -80z"/>
<path d="M4495 2236 c-17 -7 -39 -21 -48 -30 -16 -16 -17 -16 -17 8 0 23 -4
26 -35 26 l-35 0 0 -250 0 -250 40 0 40 0 0 181 0 181 35 35 c33 33 38 35 94
31 58 -3 60 -2 75 29 15 31 15 31 -16 42 -41 15 -96 13 -133 -3z"/>
<path d="M5350 2223 c-73 -39 -111 -106 -118 -207 -11 -179 76 -286 232 -286
55 0 111 21 148 57 l27 25 -30 25 -29 25 -26 -21 c-61 -48 -152 -46 -199 5
-63 68 -58 223 10 291 29 29 39 33 88 33 41 0 63 -6 91 -25 l37 -25 29 22 30
22 -22 23 c-63 67 -178 83 -268 36z"/>
<path d="M5840 2223 c-73 -39 -111 -106 -118 -207 -11 -179 76 -286 232 -286
55 0 111 21 148 57 l27 25 -30 25 -29 25 -26 -21 c-61 -48 -152 -46 -199 5
-63 68 -58 223 10 291 29 29 39 33 88 33 41 0 63 -6 91 -25 l37 -25 29 22 30
22 -22 23 c-63 67 -178 83 -268 36z"/>
<path d="M6574 2240 c-105 -33 -161 -206 -118 -361 30 -108 107 -156 232 -146
81 6 131 38 163 104 21 41 24 63 24 153 0 90 -3 112 -24 153 -34 71 -83 99
-174 103 -40 2 -86 -1 -103 -6z m176 -98 c64 -65 68 -227 6 -299 -19 -22 -33
-27 -84 -31 -108 -8 -146 38 -147 178 0 133 37 180 143 180 46 0 58 -4 82 -28z"/>
<path d="M8560 2243 c-8 -3 -27 -15 -42 -25 -28 -19 -28 -19 -28 1 0 17 -6 21
-35 21 l-35 0 0 -250 0 -250 40 0 40 0 0 178 c0 194 3 208 60 237 62 32 134
12 162 -45 15 -29 18 -63 18 -202 l0 -168 40 0 40 0 0 174 c0 229 -15 276
-105 317 -38 18 -122 24 -155 12z"/>
<path d="M9585 2236 c-17 -7 -39 -21 -48 -30 -16 -16 -17 -16 -17 8 0 23 -4
26 -35 26 l-35 0 0 -250 0 -250 40 0 40 0 0 181 0 181 35 35 c33 33 38 35 94
31 58 -3 60 -2 75 29 15 31 15 31 -16 42 -41 15 -96 13 -133 -3z"/>
<path d="M12010 2243 c-8 -3 -27 -15 -42 -25 -28 -19 -28 -19 -28 1 0 17 -6
21 -35 21 l-35 0 0 -250 0 -250 40 0 40 0 0 178 c0 194 3 208 60 237 62 32
134 12 162 -45 15 -29 18 -63 18 -202 l0 -168 40 0 40 0 0 174 c0 229 -15 276
-105 317 -38 18 -122 24 -155 12z"/>
<path d="M12540 2243 c-8 -3 -27 -15 -42 -25 -28 -19 -28 -19 -28 1 0 17 -6
21 -35 21 l-35 0 0 -250 0 -250 40 0 40 0 0 178 c0 194 3 208 60 237 62 32
134 12 162 -45 15 -29 18 -63 18 -202 l0 -168 40 0 40 0 0 174 c0 229 -15 276
-105 317 -38 18 -122 24 -155 12z"/>
<path d="M13034 2240 c-105 -33 -161 -206 -118 -361 30 -108 107 -156 232
-146 81 6 131 38 163 104 21 41 24 63 24 153 0 90 -3 112 -24 153 -34 71 -83
99 -174 103 -40 2 -86 -1 -103 -6z m176 -98 c64 -65 68 -227 6 -299 -19 -22
-33 -27 -84 -31 -108 -8 -146 38 -147 178 0 133 37 180 143 180 46 0 58 -4 82
-28z"/>
<path d="M14520 2223 c-73 -39 -111 -106 -118 -207 -11 -179 76 -286 232 -286
55 0 111 21 148 57 l27 25 -30 25 -29 25 -26 -21 c-61 -48 -152 -46 -199 5
-63 68 -58 223 10 291 29 29 39 33 88 33 41 0 63 -6 91 -25 l37 -25 29 22 30
22 -22 23 c-63 67 -178 83 -268 36z"/>
<path d="M15264 2240 c-105 -33 -161 -206 -118 -361 30 -108 107 -156 232
-146 81 6 131 38 163 104 21 41 24 63 24 153 0 90 -3 112 -24 153 -34 71 -83
99 -174 103 -40 2 -86 -1 -103 -6z m176 -98 c64 -65 68 -227 6 -299 -19 -22
-33 -27 -84 -31 -108 -8 -146 38 -147 178 0 133 37 180 143 180 46 0 58 -4 82
-28z"/>
<path d="M4130 1990 l0 -250 45 0 45 0 0 250 0 250 -45 0 -45 0 0 -250z"/>
<path d="M4854 2221 c-106 -48 -152 -193 -108 -340 43 -147 232 -201 363 -103
l33 25 -25 25 -25 25 -37 -23 c-45 -28 -126 -31 -171 -7 -34 17 -58 60 -69
120 l-7 37 172 0 173 0 -5 65 c-11 125 -81 195 -199 195 -31 0 -71 -8 -95 -19z
m139 -62 c43 -12 77 -57 77 -101 l0 -28 -131 0 c-115 0 -130 2 -125 16 3 9 6
22 6 29 0 24 51 75 83 84 43 12 46 12 90 0z"/>
<path d="M6240 1990 l0 -250 45 0 45 0 0 250 0 250 -45 0 -45 0 0 -250z"/>
<path d="M8014 2221 c-106 -48 -152 -193 -108 -340 43 -147 232 -201 363 -103
l33 25 -25 25 -25 25 -37 -23 c-45 -28 -126 -31 -171 -7 -34 17 -58 60 -69
120 l-7 37 172 0 173 0 -5 65 c-11 125 -81 195 -199 195 -31 0 -71 -8 -95 -19z
m139 -62 c43 -12 77 -57 77 -101 l0 -28 -131 0 c-115 0 -130 2 -125 16 3 9 6
22 6 29 0 24 51 75 83 84 43 12 46 12 90 0z"/>
<path d="M9044 2221 c-106 -48 -152 -193 -108 -340 43 -147 232 -201 363 -103
l33 25 -25 25 -25 25 -37 -23 c-45 -28 -126 -31 -171 -7 -34 17 -58 60 -69
120 l-7 37 172 0 173 0 -5 65 c-11 125 -81 195 -199 195 -31 0 -71 -8 -95 -19z
m139 -62 c43 -12 77 -57 77 -101 l0 -28 -131 0 c-115 0 -130 2 -125 16 3 9 6
22 6 29 0 24 51 75 83 84 43 12 46 12 90 0z"/>
<path d="M9942 2228 c-35 -12 -106 -83 -97 -98 3 -4 18 -11 34 -15 22 -5 35 0
56 19 64 59 181 37 199 -37 7 -26 6 -41 -2 -49 -7 -7 -56 -15 -109 -18 -63 -4
-110 -12 -131 -24 -67 -35 -91 -123 -54 -196 37 -76 170 -104 265 -57 l46 24
5 -22 c5 -20 10 -22 38 -16 26 6 32 12 29 27 -2 10 -6 100 -10 199 -7 196 -9
204 -69 245 -40 28 -143 37 -200 18z m196 -315 c-3 -67 -3 -68 -43 -90 -28
-16 -57 -23 -93 -23 -46 0 -58 4 -83 29 -35 36 -37 70 -5 108 22 25 32 28 112
34 49 3 95 7 102 7 10 2 12 -15 10 -65z"/>
<path d="M13427 2168 c15 -40 57 -152 94 -248 l66 -175 39 -3 39 -2 89 237
c49 131 91 244 94 251 3 8 -9 12 -40 12 l-43 0 -24 -67 c-89 -250 -114 -314
-122 -301 -5 7 -36 93 -70 190 l-61 178 -44 0 -44 0 27 -72z"/>
<path d="M14032 2228 c-35 -12 -106 -83 -97 -98 3 -4 18 -11 34 -15 22 -5 35
0 56 19 64 59 181 37 199 -37 7 -26 6 -41 -2 -49 -7 -7 -56 -15 -109 -18 -63
-4 -110 -12 -131 -24 -67 -35 -91 -123 -54 -196 37 -76 170 -104 265 -57 l46
24 5 -22 c5 -20 10 -22 38 -16 26 6 32 12 29 27 -2 10 -6 100 -10 199 -7 196
-9 204 -69 245 -40 28 -143 37 -200 18z m196 -315 c-3 -67 -3 -68 -43 -90 -28
-16 -57 -23 -93 -23 -46 0 -58 4 -83 29 -35 36 -37 70 -5 108 22 25 32 28 112
34 49 3 95 7 102 7 10 2 12 -15 10 -65z"/>
<path d="M14920 1990 l0 -250 45 0 45 0 0 250 0 250 -45 0 -45 0 0 -250z"/>
<path d="M3475 1210 c-41 -46 29 -116 75 -75 24 22 26 58 4 79 -21 22 -57 20
-79 -4z"/>
<path d="M9485 1210 c-41 -46 29 -116 75 -75 24 22 26 58 4 79 -21 22 -57 20
-79 -4z"/>
<path d="M11175 1210 c-41 -46 29 -116 75 -75 24 22 26 58 4 79 -21 22 -57 20
-79 -4z"/>
<path d="M11925 1210 c-41 -46 29 -116 75 -75 24 22 26 58 4 79 -21 22 -57 20
-79 -4z"/>
<path d="M3950 1180 l0 -40 115 0 115 0 0 -320 0 -320 40 0 40 0 0 320 0 320
110 0 110 0 0 40 0 40 -265 0 -265 0 0 -40z"/>
<path d="M6605 1208 c-67 -23 -105 -85 -105 -170 0 -34 -3 -38 -25 -38 -22 0
-25 -4 -25 -35 0 -31 3 -35 25 -35 l25 0 0 -215 0 -215 40 0 40 0 0 215 0 215
50 0 50 0 0 35 0 35 -51 0 -52 0 5 52 c6 58 40 98 84 98 21 0 24 5 24 35 0 32
-3 35 -27 34 -16 0 -41 -5 -58 -11z"/>
<path d="M10530 860 l0 -362 168 4 c181 4 220 14 275 66 56 53 62 79 62 292 0
209 -5 235 -56 289 -50 53 -100 66 -281 69 l-168 4 0 -362z m345 258 c17 -9
38 -25 48 -35 27 -31 40 -126 35 -264 -7 -201 -34 -229 -229 -237 l-119 -5 0
283 0 282 118 -4 c80 -3 126 -9 147 -20z"/>
<path d="M12943 1023 c4 -108 7 -254 7 -324 0 -126 1 -129 28 -159 17 -20 40
-33 65 -37 36 -5 37 -5 37 25 0 22 -7 35 -22 43 -13 7 -26 17 -30 23 -4 6 -8
149 -8 319 l0 307 -42 0 -41 0 6 -197z"/>
<path d="M9852 1130 l-43 -80 34 0 c25 0 38 7 53 28 11 15 37 51 58 80 l38 52
-49 0 -48 0 -43 -80z"/>
<path d="M12180 1070 l0 -70 -35 0 c-33 0 -35 -2 -35 -35 0 -33 2 -35 34 -35
l35 0 3 -186 3 -186 33 -29 c22 -20 43 -29 67 -29 33 0 35 2 35 35 0 24 -5 35
-14 35 -8 0 -22 7 -30 16 -13 13 -16 44 -16 180 l0 164 40 0 c39 0 40 1 40 35
0 34 -1 35 -40 35 l-40 0 0 70 0 70 -40 0 -40 0 0 -70z"/>
<path d="M11740 1012 c0 -5 -6 -16 -13 -26 -11 -16 -15 -16 -49 -1 -92 38
-223 6 -260 -65 -32 -61 -21 -159 23 -206 19 -21 19 -21 -1 -47 -11 -14 -23
-39 -26 -56 -5 -25 -1 -36 24 -61 35 -34 71 -38 178 -18 85 15 114 3 114 -48
0 -70 -92 -124 -188 -109 -49 7 -98 46 -88 71 6 15 -28 34 -60 34 -18 0 -19
-50 0 -95 37 -89 231 -113 337 -42 71 48 103 129 74 190 -24 51 -72 71 -149
63 -170 -19 -165 -19 -172 -1 -4 10 1 27 13 43 18 23 26 27 65 24 141 -11 229
80 200 207 -9 42 -8 47 13 68 22 23 38 67 27 78 -9 8 -62 6 -62 -3z m-78 -110
c12 -11 22 -39 25 -64 4 -37 1 -49 -20 -74 -22 -26 -32 -29 -80 -29 -75 0
-107 28 -107 95 0 47 20 77 60 93 29 12 102 -1 122 -21z"/>
<path d="M4715 996 c-17 -7 -39 -21 -48 -30 -16 -16 -17 -16 -17 8 0 23 -4 26
-35 26 l-35 0 0 -250 0 -250 40 0 40 0 0 181 0 181 35 35 c33 33 38 35 94 31
58 -3 60 -2 75 29 15 31 15 31 -16 42 -41 15 -96 13 -133 -3z"/>
<path d="M5610 1003 c-8 -3 -27 -15 -42 -25 -28 -19 -28 -19 -28 1 0 17 -6 21
-35 21 l-35 0 0 -250 0 -250 40 0 40 0 0 178 c0 194 3 208 60 237 62 32 134
12 162 -45 15 -29 18 -63 18 -202 l0 -168 40 0 40 0 0 174 c0 229 -15 276
-105 317 -38 18 -122 24 -155 12z"/>
<path d="M6065 996 c-56 -25 -80 -61 -80 -123 0 -49 3 -58 32 -83 21 -19 67
-40 131 -59 104 -33 132 -52 132 -93 0 -83 -163 -104 -222 -27 -20 24 -27 27
-52 21 -39 -11 -41 -21 -14 -63 66 -98 253 -107 337 -15 18 19 26 41 29 81 4
53 3 56 -34 94 -28 27 -56 43 -99 55 -33 9 -79 24 -103 32 -78 29 -79 92 -3
115 51 15 102 5 131 -26 21 -23 24 -23 51 -9 35 18 36 34 6 62 -52 49 -174 68
-242 38z"/>
<path d="M6884 1000 c-105 -33 -161 -206 -118 -361 30 -108 107 -156 232 -146
81 6 131 38 163 104 21 41 24 63 24 153 0 90 -3 112 -24 153 -34 71 -83 99
-174 103 -40 2 -86 -1 -103 -6z m176 -98 c64 -65 68 -227 6 -299 -19 -22 -33
-27 -84 -31 -108 -8 -146 38 -147 178 0 133 37 180 143 180 46 0 58 -4 82 -28z"/>
<path d="M7435 996 c-17 -7 -39 -21 -48 -30 -16 -16 -17 -16 -17 8 0 23 -4 26
-35 26 l-35 0 0 -250 0 -250 40 0 40 0 0 181 0 181 35 35 c33 33 38 35 94 31
58 -3 60 -2 75 29 15 31 15 31 -16 42 -41 15 -96 13 -133 -3z"/>
<path d="M7808 986 c-36 -24 -38 -24 -38 -6 0 16 -7 20 -35 20 l-35 0 0 -250
0 -250 40 0 40 0 0 175 c0 189 6 217 51 241 57 29 119 11 144 -41 12 -26 15
-70 15 -204 l0 -171 40 0 40 0 0 153 c0 83 5 170 10 192 16 72 85 105 154 74
47 -22 56 -61 56 -248 l0 -171 40 0 40 0 0 174 c0 186 -10 237 -53 285 -65 70
-216 67 -264 -6 l-16 -24 -38 37 c-34 33 -46 38 -96 42 -50 3 -63 0 -95 -22z"/>
<path d="M9080 983 c-73 -39 -111 -106 -118 -207 -11 -179 76 -286 232 -286
55 0 111 21 148 57 l27 25 -30 25 -29 25 -26 -21 c-61 -48 -152 -46 -199 5
-63 68 -58 223 10 291 29 29 39 33 88 33 41 0 63 -6 91 -25 l37 -25 29 22 30
22 -22 23 c-63 67 -178 83 -268 36z"/>
<path d="M9814 1000 c-105 -33 -161 -206 -118 -361 30 -108 107 -156 232 -146
81 6 131 38 163 104 21 41 24 63 24 153 0 90 -3 112 -24 153 -34 71 -83 99
-174 103 -40 2 -86 -1 -103 -6z m176 -98 c64 -65 68 -227 6 -299 -19 -22 -33
-27 -84 -31 -108 -8 -146 38 -147 178 0 133 37 180 143 180 46 0 58 -4 82 -28z"/>
<path d="M3470 750 l0 -250 45 0 45 0 0 250 0 250 -45 0 -45 0 0 -250z"/>
<path d="M5072 988 c-35 -12 -106 -83 -97 -98 3 -4 18 -11 34 -15 22 -5 35 0
56 19 64 59 181 37 199 -37 7 -26 6 -41 -2 -49 -7 -7 -56 -15 -109 -18 -63 -4
-110 -12 -131 -24 -67 -35 -91 -123 -54 -196 37 -76 170 -104 265 -57 l46 24
5 -22 c5 -20 10 -22 38 -16 26 6 32 12 29 27 -2 10 -6 100 -10 199 -7 196 -9
204 -69 245 -40 28 -143 37 -200 18z m196 -315 c-3 -67 -3 -68 -43 -90 -28
-16 -57 -23 -93 -23 -46 0 -58 4 -83 29 -35 36 -37 70 -5 108 22 25 32 28 112
34 49 3 95 7 102 7 10 2 12 -15 10 -65z"/>
<path d="M8592 988 c-35 -12 -106 -83 -97 -98 3 -4 18 -11 34 -15 22 -5 35 0
56 19 64 59 181 37 199 -37 7 -26 6 -41 -2 -49 -7 -7 -56 -15 -109 -18 -63 -4
-110 -12 -131 -24 -67 -35 -91 -123 -54 -196 37 -76 170 -104 265 -57 l46 24
5 -22 c5 -20 10 -22 38 -16 26 6 32 12 29 27 -2 10 -6 100 -10 199 -7 196 -9
204 -69 245 -40 28 -143 37 -200 18z m196 -315 c-3 -67 -3 -68 -43 -90 -28
-16 -57 -23 -93 -23 -46 0 -58 4 -83 29 -35 36 -37 70 -5 108 22 25 32 28 112
34 49 3 95 7 102 7 10 2 12 -15 10 -65z"/>
<path d="M9480 750 l0 -250 45 0 45 0 0 250 0 250 -45 0 -45 0 0 -250z"/>
<path d="M11170 750 l0 -250 45 0 45 0 0 250 0 250 -45 0 -45 0 0 -250z"/>
<path d="M11920 750 l0 -250 45 0 45 0 0 250 0 250 -45 0 -45 0 0 -250z"/>
<path d="M12552 988 c-35 -12 -106 -83 -97 -98 3 -4 18 -11 34 -15 22 -5 35 0
56 19 64 59 181 37 199 -37 7 -26 6 -41 -2 -49 -7 -7 -56 -15 -109 -18 -63 -4
-110 -12 -131 -24 -67 -35 -91 -123 -54 -196 37 -76 170 -104 265 -57 l46 24
5 -22 c5 -20 10 -22 38 -16 26 6 32 12 29 27 -2 10 -6 100 -10 199 -7 196 -9
204 -69 245 -40 28 -143 37 -200 18z m196 -315 c-3 -67 -3 -68 -43 -90 -28
-16 -57 -23 -93 -23 -46 0 -58 4 -83 29 -35 36 -37 70 -5 108 22 25 32 28 112
34 49 3 95 7 102 7 10 2 12 -15 10 -65z"/>
</g>
</svg>
